# xmcd
#
# Track frame offsets: 
#        150
#        28197
#        49230
#        77527
#        95725
#        120924
#        139634
#        156782
#        171444
#
# Disc length: 2542 seconds
#
# Revision: 0
# Processed by: cddbd v1.5.2PL0 Copyright (c) Steve Scherf et al.
# Submitted via: ExactAudioCopy v0.99pb4
#
DISCID=6f09ec09
DTITLE=Men In Blues - Battered and Bruised
DYEAR=2007
DGENRE=Blues
TTITLE0=Battered and Bruised
TTITLE1=Die on My Feet
TTITLE2=Real Men
TTITLE3=Shooting Stars
TTITLE4=Send a Message
TTITLE5=She's Leaving Home
TTITLE6=We Know the Truth
TTITLE7=Soul Money
TTITLE8=Shooting Stars remix
EXTD=
EXTT0=
EXTT1=
EXTT2=
EXTT3=
EXTT4=
EXTT5=
EXTT6=
EXTT7=
EXTT8=
PLAYORDER=
